<?xml version="1.0" encoding="UTF-8"?>
<svg version="1.1" xmlns="http://www.w3.org/2000/svg" width="500" height="500">
<path d="M0 0 C1.4955556 1.29379431 2.97608089 2.60526711 4.4375 3.9375 C5.10652344 4.50339844 5.77554688 5.06929687 6.46484375 5.65234375 C19.53812016 17.48301171 28.55089838 36.70936923 29.57495117 54.29833984 C30.45104192 77.70459973 26.09606226 97.85558882 10.4375 115.9375 C9.80585938 116.75992188 9.17421875 117.58234375 8.5234375 118.4296875 C2.63058701 125.51435045 -5.53237558 130.58112647 -13.5625 134.9375 C-14.34496094 135.37964844 -15.12742187 135.82179688 -15.93359375 136.27734375 C-34.79623872 145.95879491 -57.27811554 145.88598752 -77.1875 139.8359375 C-99.21726475 131.78260369 -114.83931795 116.58167516 -124.98828125 95.66796875 C-133.36315269 76.73544033 -133.9299747 54.48479305 -126.87109375 35.06640625 C-121.90805179 23.19955071 -115.78370842 13.90770132 -106.5625 4.9375 C-105.78648437 4.17566406 -105.01046875 3.41382813 -104.2109375 2.62890625 C-75.44625272 -24.25540161 -30.29702178 -23.45128251 0 0 Z M-112.5625 49.9375 C-112.8925 51.2575 -113.2225 52.5775 -113.5625 53.9375 C-111.33478658 54.44393553 -109.10525924 54.9423962 -106.875 55.4375 C-105.63363281 55.7159375 -104.39226562 55.994375 -103.11328125 56.28125 C-100.13851782 56.83104126 -97.56881398 57.07545705 -94.5625 56.9375 C-94.2325 55.9475 -93.9025 54.9575 -93.5625 53.9375 C-96.35354343 53.2681277 -99.14527023 52.60188908 -101.9375 51.9375 C-102.7315625 51.74671875 -103.525625 51.5559375 -104.34375 51.359375 C-105.48457031 51.08867187 -105.48457031 51.08867187 -106.6484375 50.8125 C-107.7010376 50.56113281 -107.7010376 50.56113281 -108.77490234 50.3046875 C-110.58486293 49.87043084 -110.58486293 49.87043084 -112.5625 49.9375 Z M-5.5625 50.9375 C-5.57667969 52.06027344 -5.59085937 53.18304688 -5.60546875 54.33984375 C-5.83636314 62.9250911 -6.10287591 69.86617876 -11.5625 76.9375 C-10.2425 77.2675 -8.9225 77.5975 -7.5625 77.9375 C-2.16980638 71.82578056 -1.25289439 66.41533847 -1.4375 58.5625 C-1.44652344 57.82644531 -1.45554687 57.09039062 -1.46484375 56.33203125 C-1.48819856 54.5337112 -1.52406164 52.73556089 -1.5625 50.9375 C-2.8825 50.9375 -4.2025 50.9375 -5.5625 50.9375 Z M4.4375 50.9375 C4.3507438 55.22904022 4.2971911 59.52035668 4.25 63.8125 C4.22486328 65.03582031 4.19972656 66.25914062 4.17382812 67.51953125 C4.16416016 68.68613281 4.15449219 69.85273438 4.14453125 71.0546875 C4.1288208 72.13347168 4.11311035 73.21225586 4.09692383 74.32373047 C4.20931396 75.18627441 4.3217041 76.04881836 4.4375 76.9375 C5.9225 77.9275 5.9225 77.9275 7.4375 78.9375 C9.06422685 77.81499844 10.68882582 76.68941267 12.3125 75.5625 C13.21742188 74.93601562 14.12234375 74.30953125 15.0546875 73.6640625 C17.47244125 72.0076905 17.47244125 72.0076905 19.4375 69.9375 C19.1189823 67.82929203 19.1189823 67.82929203 18.4375 65.9375 C17.88320313 66.35902344 17.32890625 66.78054687 16.7578125 67.21484375 C16.03335938 67.76269531 15.30890625 68.31054688 14.5625 68.875 C13.84320313 69.42027344 13.12390625 69.96554687 12.3828125 70.52734375 C10.4375 71.9375 10.4375 71.9375 8.4375 72.9375 C8.4375 65.6775 8.4375 58.4175 8.4375 50.9375 C7.1175 50.9375 5.7975 50.9375 4.4375 50.9375 Z M-46.5625 52.9375 C-46.5625 54.2575 -46.5625 55.5775 -46.5625 56.9375 C-39.3025 57.2675 -32.0425 57.5975 -24.5625 57.9375 C-30.5625 65.9375 -30.5625 65.9375 -33.5625 66.9375 C-36.75 65 -36.75 65 -39.5625 62.9375 C-40.5525 64.4225 -40.5525 64.4225 -41.5625 65.9375 C-37.2725 70.2275 -32.9825 74.5175 -28.5625 78.9375 C-27.5725 78.6075 -26.5825 78.2775 -25.5625 77.9375 C-26.76149698 74.8543649 -28.03950477 71.87470508 -29.5625 68.9375 C-28.99015625 68.70933594 -28.4178125 68.48117188 -27.828125 68.24609375 C-24.95498195 66.58660595 -23.36989479 64.59460342 -21.3125 62 C-20.60609375 61.12472656 -19.8996875 60.24945313 -19.171875 59.34765625 C-17.28483893 57.00469778 -17.28483893 57.00469778 -17.5625 53.9375 C-20.32867563 52.55441219 -22.57268 52.82539804 -25.6640625 52.83984375 C-27.48164063 52.84467773 -27.48164063 52.84467773 -29.3359375 52.84960938 C-30.60695313 52.85798828 -31.87796875 52.86636719 -33.1875 52.875 C-35.105625 52.88176758 -35.105625 52.88176758 -37.0625 52.88867188 C-40.22921292 52.90048797 -43.39583356 52.91696185 -46.5625 52.9375 Z M-80.5625 53.9375 C-80.5625 55.2575 -80.5625 56.5775 -80.5625 57.9375 C-72.9725 57.9375 -65.3825 57.9375 -57.5625 57.9375 C-57.5625 56.6175 -57.5625 55.2975 -57.5625 53.9375 C-65.1525 53.9375 -72.7425 53.9375 -80.5625 53.9375 Z M-114.5625 59.9375 C-114.5625 61.2575 -114.5625 62.5775 -114.5625 63.9375 C-112.50327867 64.47114887 -110.43993893 64.98892189 -108.375 65.5 C-107.22644531 65.79003906 -106.07789063 66.08007812 -104.89453125 66.37890625 C-101.67769907 66.91818761 -99.66577217 66.81997476 -96.5625 65.9375 C-96.5625 65.2775 -96.5625 64.6175 -96.5625 63.9375 C-98.9988189 63.26623871 -101.43638883 62.60033646 -103.875 61.9375 C-104.56529297 61.74671875 -105.25558594 61.5559375 -105.96679688 61.359375 C-108.92037949 60.56033816 -111.48809219 59.9375 -114.5625 59.9375 Z M-115.5625 69.9375 C-116.2225 71.2575 -116.8825 72.5775 -117.5625 73.9375 C-114.27179159 74.77464909 -110.97978353 75.60656896 -107.6875 76.4375 C-106.28177734 76.79521484 -106.28177734 76.79521484 -104.84765625 77.16015625 C-103.95175781 77.38574219 -103.05585938 77.61132812 -102.1328125 77.84375 C-101.30539551 78.05322266 -100.47797852 78.26269531 -99.62548828 78.47851562 C-97.58936081 79.00989169 -97.58936081 79.00989169 -95.5625 78.9375 C-95.2325 77.6175 -94.9025 76.2975 -94.5625 74.9375 C-101.4925 73.2875 -108.4225 71.6375 -115.5625 69.9375 Z M-83.5625 71.9375 C-83.5625 73.2575 -83.5625 74.5775 -83.5625 75.9375 C-73.9925 75.9375 -64.4225 75.9375 -54.5625 75.9375 C-54.5625 74.6175 -54.5625 73.2975 -54.5625 71.9375 C-64.1325 71.9375 -73.7025 71.9375 -83.5625 71.9375 Z " fill="#D91B1B" transform="translate(300.5625,186.0625)"/>
</svg>
